<svg width="43" height="39" viewBox="0 0 43 39" fill="none" xmlns="http://www.w3.org/2000/svg">
<g clip-path="url(#clip0)">
<path opacity="0.4" d="M34.5322 20.7135L37.4649 17.7425C37.7541 17.4496 37.7541 17.0311 37.4649 16.7382L36.8867 16.1524C37.0932 16.0687 37.2997 15.9013 37.4649 15.7339C38.2911 14.897 38.2911 13.5579 37.4649 12.721C37.0932 12.3444 36.5975 12.1352 36.1018 12.0933C36.0605 11.5912 35.854 11.0891 35.4822 10.7124C34.6561 9.87553 33.3343 9.87553 32.5082 10.7124C32.3429 10.8798 32.1777 11.0891 32.0951 11.2983L31.5168 10.7124C31.2277 10.4195 30.8146 10.4195 30.5255 10.7124L27.5927 13.6835L34.5322 20.7135ZM34.9866 18.2446L33.0039 16.236L33.9952 15.2318L35.9779 17.2403L34.9866 18.2446ZM35.4822 13.6835C35.7714 13.3906 36.1844 13.3906 36.4736 13.6835C36.7627 13.9764 36.7627 14.3948 36.4736 14.6878C36.1844 14.9807 35.7714 14.9807 35.4822 14.6878L34.9866 14.1856L35.4822 13.6835ZM33.4995 11.6749C33.7887 11.382 34.2017 11.382 34.4909 11.6749C34.78 11.9678 34.78 12.3863 34.4909 12.6792L33.9952 13.1813L33.4995 12.6792C33.2104 12.4281 33.2104 11.9678 33.4995 11.6749ZM31.0211 12.177L33.0039 14.1856L32.0125 15.1899L30.0298 13.1813L31.0211 12.177Z" fill="#EE4853"/>
<path opacity="0.4" d="M15.8203 8.24355L15.2421 8.82939C15.1594 8.62016 14.9942 8.41093 14.829 8.24355C14.0029 7.40664 12.6811 7.40664 11.8549 8.24355C11.4832 8.62016 11.2766 9.1223 11.2353 9.62445C10.7397 9.6663 10.244 9.87552 9.87222 10.2521C9.04609 11.089 9.04609 12.4281 9.87222 13.265C10.0374 13.4324 10.244 13.5998 10.4505 13.6835L9.87222 14.2693C9.58308 14.5622 9.58308 14.9807 9.87222 15.2736L11.8549 17.2822C12.1441 17.5751 12.5571 17.5751 12.8463 17.2822L13.342 16.78L15.8203 19.2908C16.1095 19.5837 16.5226 19.5837 16.8117 19.2908L20.7771 15.2736C21.0663 14.9807 21.0663 14.5622 20.7771 14.2693L18.2987 11.7586L18.7944 11.2564C19.0836 10.9635 19.0836 10.5451 18.7944 10.2521L16.8117 8.24355C16.5639 7.95063 16.1095 7.95063 15.8203 8.24355ZM12.8463 9.24784C13.1354 8.95492 13.5485 8.95492 13.8376 9.24784C14.1268 9.54076 14.1268 9.95921 13.8376 10.2521L13.342 10.7543L12.8463 10.2521C12.5571 9.95921 12.5571 9.49891 12.8463 9.24784ZM10.8636 12.2607C10.5744 11.9678 10.5744 11.5493 10.8636 11.2564C11.1527 10.9635 11.5658 10.9635 11.8549 11.2564L12.3506 11.7586L11.8549 12.2607C11.5658 12.5536 11.1114 12.5536 10.8636 12.2607ZM11.3593 14.7714L13.342 12.7629L14.3333 13.7672L12.3506 15.7757L11.3593 14.7714ZM19.2901 14.7714L16.316 17.7843L14.3333 15.7757L15.3247 14.7714L15.8203 15.2736C16.1095 15.5665 16.5226 15.5665 16.8117 15.2736C17.1008 14.9807 17.1008 14.5622 16.8117 14.2693L16.316 13.7672L17.3074 12.7629L19.2901 14.7714ZM17.3074 10.7543L15.3247 12.7629L14.3333 11.7586L16.316 9.74999L17.3074 10.7543Z" fill="#EE4853"/>
<path d="M25.1143 14.8133L34.8213 24.647C35.3583 25.191 35.6887 25.9442 35.6887 26.7393C35.6887 27.5343 35.3996 28.2875 34.8213 28.8315L25.6513 38.1631C25.1143 38.7071 24.3708 39.0418 23.5859 39.0418C22.8011 39.0418 22.0576 38.7489 21.5206 38.1631L19.1248 35.736L25.1143 14.8133Z" fill="#3897F0"/>
<path d="M42.1326 16.8637C42.6696 16.3197 43 15.5665 43 14.7715C43 13.9764 42.7109 13.2232 42.1326 12.6792L30.4842 0.878755C29.9472 0.334764 29.2037 0 28.4188 0C27.634 0 26.8905 0.292918 26.3535 0.878755L20.9011 6.40236L22.0576 7.57403L27.5101 2.05043C27.7579 1.79936 28.0884 1.67382 28.4188 1.67382C28.7493 1.67382 29.0797 1.79936 29.3276 2.05043L41.0173 13.8927C41.513 14.3948 41.513 15.1899 41.0173 15.6921L35.317 21.4249C35.3996 21.7178 35.4822 22.0526 35.4822 22.3873C35.4822 23.1824 35.1931 23.9356 34.6148 24.4796" fill="#1E1E1E"/>
<path d="M15.8203 11.5912L15.2421 12.177C15.1594 11.9678 14.9942 11.7586 14.829 11.5912C14.0029 10.7543 12.6811 10.7543 11.8549 11.5912C11.4832 11.9678 11.2766 12.47 11.2353 12.9721C10.7397 13.014 10.244 13.2232 9.87222 13.5998C9.04609 14.4367 9.04609 15.7758 9.87222 16.6127C10.0374 16.78 10.244 16.9474 10.4505 17.0311L9.87222 17.617C9.58308 17.9099 9.58308 18.3283 9.87222 18.6212L11.8549 20.6298C12.1441 20.9228 12.5571 20.9228 12.8463 20.6298L13.342 20.1277L15.8203 22.6384C16.1095 22.9313 16.5226 22.9313 16.8117 22.6384L20.7771 18.6212C21.0663 18.3283 21.0663 17.9099 20.7771 17.617L18.2987 15.1062L18.7944 14.6041C19.0836 14.3112 19.0836 13.8927 18.7944 13.5998L16.8117 11.5912C16.5639 11.2983 16.1095 11.2983 15.8203 11.5912ZM12.8463 12.5955C13.1354 12.3026 13.5485 12.3026 13.8376 12.5955C14.1268 12.8884 14.1268 13.3069 13.8376 13.5998L13.342 14.1019L12.8463 13.5998C12.5571 13.3069 12.5571 12.8466 12.8463 12.5955ZM10.8636 15.6084C10.5744 15.3155 10.5744 14.897 10.8636 14.6041C11.1527 14.3112 11.5658 14.3112 11.8549 14.6041L12.3506 15.1062L11.8549 15.6084C11.5658 15.9013 11.1114 15.9013 10.8636 15.6084ZM11.3593 18.1191L13.342 16.1105L14.3333 17.1148L12.3506 19.1234L11.3593 18.1191ZM19.2901 18.1191L16.316 21.132L14.3333 19.1234L15.3247 18.1191L15.8203 18.6212C16.1095 18.9142 16.5226 18.9142 16.8117 18.6212C17.1008 18.3283 17.1008 17.9099 16.8117 17.617L16.316 17.1148L17.3074 16.1105L19.2901 18.1191ZM17.3074 14.1019L15.3247 16.1105L14.3333 15.1062L16.316 13.0976L17.3074 14.1019Z" fill="#1E1E1E"/>
<path d="M21.2728 37.9957C20.488 37.9957 19.7445 37.7028 19.2075 37.117L0.867435 18.5376C0.289145 17.9936 0 17.2403 0 16.4453C0 15.6502 0.289145 14.897 0.867435 14.353L12.9289 2.13412C13.4659 1.59013 14.2094 1.25537 14.9942 1.25537C15.7791 1.25537 16.5226 1.54829 17.0596 2.13412L35.4409 20.7554C35.9779 21.2994 36.3084 22.0526 36.3084 22.8476C36.3084 23.6427 36.0192 24.3959 35.4409 24.9399L23.3381 37.1588C22.8012 37.7028 22.0576 37.9957 21.2728 37.9957ZM14.9942 2.92919C14.6638 2.92919 14.3333 3.05472 14.0855 3.3058L2.02402 15.5665C1.77618 15.8176 1.65226 16.1105 1.65226 16.4453C1.65226 16.78 1.77618 17.1148 2.02402 17.3659L20.4054 35.9871C20.9011 36.4893 21.7272 36.4893 22.1816 35.9871L34.2843 23.7264C34.5322 23.4753 34.6561 23.1824 34.6561 22.8058C34.6561 22.4292 34.5322 22.1363 34.2843 21.8852L15.903 3.3058C15.6551 3.05472 15.3247 2.92919 14.9942 2.92919Z" fill="#1E1E1E"/>
<path fill-rule="evenodd" clip-rule="evenodd" d="M26.4983 19.3077C26.8986 19.7133 26.8994 20.3718 26.5001 20.7785L18.6932 28.7291C18.2939 29.1358 17.6456 29.1366 17.2453 28.731C16.845 28.3253 16.8442 27.6669 17.2435 27.2602L25.0504 19.3095C25.4497 18.9029 26.0979 18.902 26.4983 19.3077Z" fill="#1E1E1E"/>
<path fill-rule="evenodd" clip-rule="evenodd" d="M28.9766 21.8184C29.377 22.224 29.3778 22.8825 28.9785 23.2892L21.1716 31.2398C20.7722 31.6465 20.124 31.6473 19.7237 31.2417C19.3233 30.836 19.3225 30.1776 19.7218 29.7709L27.5287 21.8203C27.9281 21.4136 28.5763 21.4128 28.9766 21.8184Z" fill="#1E1E1E"/>
<path d="M31.8886 18.2865L33.5822 16.5708C33.8713 16.2779 33.8713 15.8594 33.5822 15.5665L33.0452 14.9388C33.2517 14.8551 33.4582 14.6878 33.6235 14.5204C34.4496 13.6835 34.4496 12.3444 33.6235 11.5075C33.2517 11.1309 32.756 10.9217 32.2603 10.8798C32.219 10.3777 32.0125 9.87553 31.6408 9.49892C30.8146 8.66202 29.4928 8.66202 28.6667 9.49892C28.5015 9.66631 28.3362 9.87553 28.2536 10.0848L27.6753 9.49892C27.3862 9.20601 26.9731 9.20601 26.684 9.49892L24.9904 11.2146L31.8886 18.2865ZM31.1038 17.0311L29.1211 15.0225L30.1124 14.0182L32.0951 16.0268L31.1038 17.0311ZM31.5994 12.5118C31.8886 12.2189 32.3017 12.2189 32.5908 12.5118C32.8799 12.8047 32.8799 13.2232 32.5908 13.5161C32.3017 13.809 31.8886 13.809 31.5994 13.5161L31.1038 13.0139L31.5994 12.5118ZM29.6167 10.5032C29.9059 10.2103 30.3189 10.2103 30.6081 10.5032C30.8972 10.7961 30.8972 11.2146 30.6081 11.5075L30.1124 12.0097L29.6167 11.5075C29.3689 11.2146 29.3689 10.7543 29.6167 10.5032ZM27.1384 11.0054L29.1211 13.0139L28.1297 14.0182L26.147 12.0097L27.1384 11.0054Z" fill="#1E1E1E"/>
</g>
<defs>
<clipPath id="clip0">
<rect width="43" height="39" fill="white"/>
</clipPath>
</defs>
</svg>
