<svg width="35" height="35" viewBox="0 0 35 35" fill="none" xmlns="http://www.w3.org/2000/svg">
<path opacity="0.4" d="M13.9908 13.917V8.52856C13.9908 5.73741 16.2943 3.48898 19.1538 3.48898C22.0132 3.48898 24.3167 5.73741 24.3167 8.52856V14.0721C24.9124 14.4598 25.4287 14.8862 25.9053 15.3902V8.52856C25.9053 4.88456 22.887 1.93834 19.1538 1.93834C15.4206 1.93834 12.4022 4.88456 12.4022 8.52856V15.1576C12.8788 14.6924 13.4348 14.2659 13.9908 13.917Z" fill="#EE4853"/>
<path d="M33.5305 25.004H5.84916L4.41942 32.0594C4.22085 33.2612 5.17401 34.3854 6.40517 34.3854H32.9348C34.2056 34.3854 35.1588 33.3 34.9205 32.0594L33.5305 25.004Z" fill="#3897F0"/>
<path fill-rule="evenodd" clip-rule="evenodd" d="M6.80237 9.57463C6.28822 9.57463 5.86602 9.92991 5.78441 10.4278L5.78376 10.4317L2.4852 29.5563L2.48349 29.5652C2.36496 30.1823 2.82201 30.742 3.50603 30.742H30.0356C30.7042 30.742 31.1922 30.1519 31.0941 29.5442L27.758 10.4327L27.7572 10.4278C27.6756 9.92991 27.2534 9.57463 26.7393 9.57463H6.80237ZM3.84956 10.1138C4.08744 8.67564 5.33226 7.63742 6.80237 7.63742H26.7393C28.209 7.63742 29.4536 8.67513 29.6919 10.1127C29.6922 10.1145 29.6925 10.1163 29.6928 10.1181L33.028 29.2243L33.0287 29.2285C33.3252 31.0231 31.9075 32.6792 30.0356 32.6792H3.50603C1.65154 32.6792 0.204093 31.0736 0.555229 29.2138L3.84956 10.1138Z" fill="#1E1E1E"/>
<path d="M11.6079 11.9787V6.59022C11.6079 3.79907 13.9114 1.55064 16.7709 1.55064C19.6303 1.55064 21.9338 3.79907 21.9338 6.59022V12.1338C22.5295 12.5214 23.0458 12.9478 23.5224 13.4518V6.59022C23.5224 2.94622 20.5041 0 16.7709 0C13.0377 0 10.0193 2.94622 10.0193 6.59022V13.2192C10.4959 12.754 11.0519 12.3276 11.6079 11.9787Z" fill="#1E1E1E"/>
<path fill-rule="evenodd" clip-rule="evenodd" d="M11.1177 11.7167V6.59022C11.1177 3.52609 13.6463 1.06634 16.7709 1.06634C19.8955 1.06634 22.424 3.52609 22.424 6.59022V11.8769C22.6353 12.0224 22.8375 12.1737 23.0322 12.3324V6.59022C23.0322 3.21919 20.2389 0.484302 16.7709 0.484302C13.3028 0.484302 10.5095 3.21919 10.5095 6.59022V12.1524C10.7088 11.9987 10.9127 11.8529 11.1177 11.7167ZM11.6079 11.9787V6.59022C11.6079 3.79907 13.9114 1.55064 16.7709 1.55064C19.6303 1.55064 21.9338 3.79907 21.9338 6.59022V12.1338C22.3314 12.3925 22.6936 12.6685 23.0322 12.9732C23.201 13.1251 23.3639 13.2842 23.5224 13.4518V6.59022C23.5224 2.94622 20.5041 0 16.7709 0C13.0377 0 10.0193 2.94622 10.0193 6.59022V13.2192C10.1751 13.0671 10.3395 12.9191 10.5095 12.7767C10.8595 12.4834 11.2337 12.2135 11.6079 11.9787Z" fill="#1E1E1E"/>
<path fill-rule="evenodd" clip-rule="evenodd" d="M31.5448 28.0272H2.03659V26.09H31.5448V28.0272Z" fill="#1E1E1E"/>
<path opacity="0.4" d="M21.5763 16.1266C20.782 16.1266 20.0274 16.5531 19.5509 17.1346C19.0743 16.5143 18.3197 16.1266 17.5254 16.1266C16.1354 16.1266 14.9836 17.2509 14.9836 18.6077C14.9836 21.3213 19.0743 23.8411 19.2729 23.9574C19.3523 23.9961 19.4317 24.0349 19.5509 24.0349C19.67 24.0349 19.7494 23.9961 19.8289 23.9574C19.9877 23.8411 24.1181 21.2825 24.1181 18.6077C24.1181 17.2121 22.9664 16.1266 21.5763 16.1266Z" fill="#EE4853"/>
<path d="M16.3744 16.2762L16.7582 16.7758L17.1575 16.2885C17.5557 15.8027 18.1761 15.4637 18.7963 15.4637C19.9268 15.4637 20.8381 16.3416 20.8381 17.4447C20.8381 17.9857 20.628 18.5541 20.2673 19.1259C19.9081 19.6955 19.419 20.2371 18.9107 20.7145C18.0336 21.5384 17.1592 22.12 16.8552 22.3222C16.8332 22.3368 16.8141 22.3495 16.7983 22.3601C16.7938 22.3623 16.7898 22.3641 16.7859 22.3658C16.7776 22.3695 16.7731 22.3712 16.7709 22.3719C16.7709 22.3719 16.7709 22.3719 16.7708 22.3719C16.7708 22.3719 16.7708 22.3719 16.7707 22.3719C16.7686 22.3712 16.764 22.3695 16.7558 22.3658C16.7486 22.3626 16.7411 22.3591 16.7306 22.354C16.5793 22.2626 15.5852 21.6392 14.616 20.7291C14.111 20.2548 13.6261 19.7149 13.2701 19.1444C12.9131 18.5721 12.7036 17.9979 12.7036 17.4447C12.7036 16.3753 13.62 15.4637 14.7454 15.4637C15.3789 15.4637 15.989 15.7747 16.3744 16.2762Z" fill="#1E1E1E" stroke="#1E1E1E"/>
</svg>
