<svg width="103" height="104" viewBox="0 0 103 104" fill="none" xmlns="http://www.w3.org/2000/svg">
<path fill-rule="evenodd" clip-rule="evenodd" d="M86.5925 14.2491C77.8545 6.10651 66.2815 0.966553 53.5165 0.472362V3.71929C65.3858 4.20988 76.1485 8.98754 84.2969 16.5447L86.5925 14.2491ZM78.2854 22.5562C71.7275 16.397 63.078 12.4389 53.5165 11.8614V15.1123C62.1824 15.6827 70.0222 19.2776 75.9901 24.8515L78.2854 22.5562ZM78.2611 27.1686L80.5583 24.8714C86.7707 31.7357 90.6187 40.78 90.8177 50.7196H87.5727C87.3755 41.6756 83.8886 33.4423 78.2611 27.1686ZM24.4041 76.4374C18.8303 70.4695 15.2353 62.6298 14.665 53.9639H11.4141C11.9916 63.5254 15.9497 72.1748 22.1088 78.7327L24.4041 76.4374ZM24.4241 81.0056L26.7212 78.7084C32.995 84.336 41.2283 87.8228 50.2723 88.02V91.265C40.3327 91.066 31.2883 87.218 24.4241 81.0056ZM16.0974 84.7442C8.54021 76.5958 3.76255 65.8332 3.27196 53.9639H0.0250353C0.519228 66.7288 5.65919 78.3018 13.8018 87.0398L16.0974 84.7442ZM16.0868 89.3429L18.3817 87.0479C26.7488 94.9401 37.9361 99.8746 50.2723 100.18V103.425C37.0403 103.118 25.0422 97.8213 16.0868 89.3429ZM86.6006 18.8291L88.8956 16.5341C97.374 25.4895 102.671 37.4877 102.978 50.7196H99.7325C99.4273 38.3834 94.4928 27.1961 86.6006 18.8291ZM-6.10352e-05 50.7196C0.304965 37.5609 5.54525 25.6223 13.9417 16.683L16.237 18.9783C8.42653 27.3288 3.54861 38.4566 3.24517 50.7196H-6.10352e-05ZM18.531 16.6842L16.2358 14.389C25.1751 5.99255 37.1136 0.752291 50.2723 0.447266V3.6925C38.0093 3.99593 26.8816 8.87382 18.531 16.6842ZM11.349 50.7196C11.5506 40.6478 15.499 31.4953 21.8574 24.5987L24.1536 26.8949C18.3806 33.2019 14.794 41.5435 14.594 50.7196H11.349ZM24.1515 22.3047L26.4476 24.6008C32.7547 18.8279 41.0962 15.2414 50.2723 15.0413V11.7963C40.2005 11.9979 31.0481 15.9463 24.1515 22.3047ZM53.5165 87.949C62.0519 87.3872 69.7858 83.8913 75.7191 78.4604L78.0152 80.7565C71.4908 86.7719 62.9473 90.6303 53.5165 91.1999V87.949ZM78.0132 76.1664L80.3093 78.4625C86.3246 71.938 90.1829 63.3946 90.7525 53.9639H87.5017C86.9399 62.4992 83.444 70.233 78.0132 76.1664ZM53.5165 100.153C65.4587 99.6595 76.2807 94.826 84.4468 87.1881L86.742 89.4833C77.9867 97.7069 66.3544 102.903 53.5165 103.4V100.153ZM86.7408 84.894L89.0361 87.1893C97.2596 78.434 102.456 66.8017 102.953 53.9639H99.7058C99.2122 65.906 94.3787 76.7279 86.7408 84.894Z" fill="url(#paint0_linear)"/>
<path d="M47.8169 45.8295L71.5424 41.2816C71.7853 41.2351 71.9347 41.5386 71.7496 41.7027L53.6751 57.7306C50.4183 60.6186 45.3316 59.7932 43.1552 56.0235C40.7899 51.9266 43.1707 46.7201 47.8169 45.8295Z" fill="url(#paint1_linear)"/>
<defs>
<linearGradient id="paint0_linear" x1="51.4889" y1="0.447266" x2="51.4889" y2="103.425" gradientUnits="userSpaceOnUse">
<stop offset="0.237569" stop-color="#78D600"/>
<stop offset="0.834254" stop-color="#135EC7"/>
</linearGradient>
<linearGradient id="paint1_linear" x1="51.4889" y1="0.447266" x2="51.4889" y2="103.425" gradientUnits="userSpaceOnUse">
<stop offset="0.237569" stop-color="#78D600"/>
<stop offset="0.834254" stop-color="#135EC7"/>
</linearGradient>
</defs>
</svg>
