<svg width="104" height="106" viewBox="0 0 104 106" fill="none" xmlns="http://www.w3.org/2000/svg">
<path fill-rule="evenodd" clip-rule="evenodd" d="M0 52.7196C0 39.7293 10.5307 29.1986 23.5211 29.1986H80.296C93.2863 29.1986 103.817 39.7293 103.817 52.7196C103.817 65.7099 93.2863 76.2407 80.296 76.2407H78.5569C65.9423 76.2407 55.6779 66.178 55.3527 53.6418H47.4725C47.1474 66.178 36.883 76.2407 24.2683 76.2407H23.5211C10.5308 76.2407 0 65.7099 0 52.7196ZM23.5211 32.4428C12.3225 32.4428 3.24428 41.5211 3.24428 52.7196C3.24428 63.9182 12.3225 72.9964 23.5211 72.9964H24.2683C35.2962 72.9964 44.2362 64.0565 44.2362 53.0285C44.2362 51.5755 45.4141 50.3975 46.8672 50.3975H55.9581C57.4111 50.3975 58.5891 51.5755 58.5891 53.0285C58.5891 64.0565 67.529 72.9964 78.5569 72.9964H80.296C91.4946 72.9964 100.573 63.9182 100.573 52.7196C100.573 41.5211 91.4946 32.4428 80.296 32.4428H23.5211Z" fill="url(#paint0_linear)"/>
<path fill-rule="evenodd" clip-rule="evenodd" d="M41.3645 38.1203C41.3645 37.2245 42.0907 36.4982 42.9866 36.4982H60.0191C60.915 36.4982 61.6412 37.2245 61.6412 38.1203C61.6412 39.0162 60.915 39.7425 60.0191 39.7425H42.9866C42.0907 39.7425 41.3645 39.0162 41.3645 38.1203Z" fill="url(#paint1_linear)"/>
<path fill-rule="evenodd" clip-rule="evenodd" d="M21.8989 63.2635C20.5551 63.2635 19.4657 62.1742 19.4657 60.8303L19.4657 44.6089C19.4657 43.2651 20.5551 42.1757 21.8989 42.1757H25.1432C26.487 42.1757 27.5764 43.2651 27.5764 44.6089V60.8303C27.5764 62.1742 26.487 63.2635 25.1432 63.2635H21.8989Z" fill="url(#paint2_linear)"/>
<path fill-rule="evenodd" clip-rule="evenodd" d="M34.065 54.3418C34.065 55.6856 32.9756 56.775 31.6318 56.775H15.4104C14.0666 56.775 12.9772 55.6856 12.9772 54.3418V51.0975C12.9772 49.7536 14.0666 48.6643 15.4104 48.6643H31.6318C32.9756 48.6643 34.065 49.7537 34.065 51.0975V54.3418Z" fill="url(#paint3_linear)"/>
<path d="M84.5063 46.8969C84.966 49.5043 83.225 51.9907 80.6176 52.4505C78.0101 52.9102 75.5237 51.1692 75.0639 48.5618C74.6042 45.9544 76.3452 43.4679 78.9526 43.0082C81.5601 42.5484 84.0465 44.2894 84.5063 46.8969Z" fill="url(#paint4_linear)"/>
<path d="M90.6074 57.3564C91.0672 59.9638 89.3262 62.4502 86.7187 62.91C84.1113 63.3698 81.6249 61.6287 81.1651 59.0213C80.7054 56.4139 82.4464 53.9275 85.0538 53.4677C87.6612 53.0079 90.1477 54.749 90.6074 57.3564Z" fill="url(#paint5_linear)"/>
<path d="M78.4046 57.3565C78.8644 59.9639 77.1234 62.4503 74.516 62.9101C71.9085 63.3698 69.4221 61.6288 68.9623 59.0214C68.5026 56.414 70.2436 53.9275 72.851 53.4678C75.4585 53.008 77.9449 54.749 78.4046 57.3565Z" fill="url(#paint6_linear)"/>
<path d="M58.3971 0.811074V3.24429C58.3971 4.58811 57.3077 5.6775 55.9639 5.6775L47.8532 5.6775C46.5094 5.6775 45.42 4.58811 45.42 3.24429V0.811074L58.3971 0.811074Z" fill="url(#paint7_linear)"/>
<path d="M33.2539 3.24428H70.5632C73.6988 3.24428 76.2407 5.78619 76.2407 8.92178V25.9543H79.485V8.92178C79.485 3.99442 75.4906 0 70.5632 0H33.2539C28.3266 0 24.3322 3.99442 24.3322 8.92178V25.9543H27.5764V8.92178C27.5764 5.78619 30.1183 3.24428 33.2539 3.24428Z" fill="url(#paint8_linear)"/>
<path d="M27.5764 79.485H24.3322V96.5175C24.3322 101.445 28.3266 105.439 33.2539 105.439H70.5632C75.4906 105.439 79.485 101.445 79.485 96.5175V79.485H76.2407V96.5175C76.2407 99.653 73.6988 102.195 70.5632 102.195H33.2539C30.1183 102.195 27.5764 99.6531 27.5764 96.5175V79.485Z" fill="url(#paint9_linear)"/>
<path d="M79.485 13.7882C80.3809 13.7882 81.1071 14.5145 81.1071 15.4103V19.4657C81.1071 20.3616 80.3809 21.0878 79.485 21.0878C78.5891 21.0878 77.8628 20.3616 77.8628 19.4657V15.4103C77.8628 14.5145 78.5891 13.7882 79.485 13.7882Z" fill="url(#paint10_linear)"/>
<defs>
<linearGradient id="paint0_linear" x1="51.9085" y1="0" x2="51.9085" y2="105.439" gradientUnits="userSpaceOnUse">
<stop offset="0.237569" stop-color="#78D600"/>
<stop offset="0.834254" stop-color="#135EC7"/>
</linearGradient>
<linearGradient id="paint1_linear" x1="51.9085" y1="0" x2="51.9085" y2="105.439" gradientUnits="userSpaceOnUse">
<stop offset="0.237569" stop-color="#78D600"/>
<stop offset="0.834254" stop-color="#135EC7"/>
</linearGradient>
<linearGradient id="paint2_linear" x1="51.9085" y1="0" x2="51.9085" y2="105.439" gradientUnits="userSpaceOnUse">
<stop offset="0.237569" stop-color="#78D600"/>
<stop offset="0.834254" stop-color="#135EC7"/>
</linearGradient>
<linearGradient id="paint3_linear" x1="51.9085" y1="0" x2="51.9085" y2="105.439" gradientUnits="userSpaceOnUse">
<stop offset="0.237569" stop-color="#78D600"/>
<stop offset="0.834254" stop-color="#135EC7"/>
</linearGradient>
<linearGradient id="paint4_linear" x1="51.9085" y1="0" x2="51.9085" y2="105.439" gradientUnits="userSpaceOnUse">
<stop offset="0.237569" stop-color="#78D600"/>
<stop offset="0.834254" stop-color="#135EC7"/>
</linearGradient>
<linearGradient id="paint5_linear" x1="51.9085" y1="0" x2="51.9085" y2="105.439" gradientUnits="userSpaceOnUse">
<stop offset="0.237569" stop-color="#78D600"/>
<stop offset="0.834254" stop-color="#135EC7"/>
</linearGradient>
<linearGradient id="paint6_linear" x1="51.9085" y1="0" x2="51.9085" y2="105.439" gradientUnits="userSpaceOnUse">
<stop offset="0.237569" stop-color="#78D600"/>
<stop offset="0.834254" stop-color="#135EC7"/>
</linearGradient>
<linearGradient id="paint7_linear" x1="51.9085" y1="0" x2="51.9085" y2="105.439" gradientUnits="userSpaceOnUse">
<stop offset="0.237569" stop-color="#78D600"/>
<stop offset="0.834254" stop-color="#135EC7"/>
</linearGradient>
<linearGradient id="paint8_linear" x1="51.9085" y1="0" x2="51.9085" y2="105.439" gradientUnits="userSpaceOnUse">
<stop offset="0.237569" stop-color="#78D600"/>
<stop offset="0.834254" stop-color="#135EC7"/>
</linearGradient>
<linearGradient id="paint9_linear" x1="51.9085" y1="0" x2="51.9085" y2="105.439" gradientUnits="userSpaceOnUse">
<stop offset="0.237569" stop-color="#78D600"/>
<stop offset="0.834254" stop-color="#135EC7"/>
</linearGradient>
<linearGradient id="paint10_linear" x1="51.9085" y1="0" x2="51.9085" y2="105.439" gradientUnits="userSpaceOnUse">
<stop offset="0.237569" stop-color="#78D600"/>
<stop offset="0.834254" stop-color="#135EC7"/>
</linearGradient>
</defs>
</svg>
