<svg width="36" height="34" viewBox="0 0 36 34" fill="none" xmlns="http://www.w3.org/2000/svg">
<g clip-path="url(#clip0)">
<path opacity="0.4" d="M11.0316 8.82356C11.0316 12.9387 14.33 16.3125 18.4348 16.3125C22.5395 16.3125 25.838 8.82356 25.838 8.82356C25.838 8.82356 11.0316 4.70837 11.0316 8.82356Z" fill="#EE4853"/>
<path d="M31.1155 33.6259H3.59165C3.59165 33.6259 3.555 18.7594 17.3719 18.7594C31.1522 18.7594 31.1155 33.6259 31.1155 33.6259Z" fill="#3897F0"/>
<path d="M7.51318 31.8093C7.43988 31.8093 7.36658 31.8093 7.32993 31.7722C6.85348 31.661 6.56029 31.1791 6.67024 30.6971L7.87968 25.3585C7.98962 24.8765 8.46607 24.5799 8.94252 24.6911C9.41896 24.8024 9.71216 25.2843 9.60221 25.7663L8.39277 31.1049C8.28282 31.5498 7.91633 31.8093 7.51318 31.8093Z" fill="#222222"/>
<path d="M14.6599 16.7574C10.0787 16.7574 6.37704 13.0129 6.37704 8.37868C6.37704 3.74446 10.0787 0 14.6599 0C19.2411 0 22.9427 3.74446 22.9427 8.37868C22.9427 13.0129 19.2411 16.7574 14.6599 16.7574ZM14.6599 1.81662C11.0682 1.81662 8.17288 4.74545 8.17288 8.37868C8.17288 12.0119 11.0682 14.9407 14.6599 14.9407C18.2515 14.9407 21.1469 12.0119 21.1469 8.37868C21.1469 4.74545 18.2515 1.81662 14.6599 1.81662Z" fill="#1E1E1E"/>
<path d="M9.27236 30.4747C9.19906 30.4747 9.12577 30.4747 9.08912 30.4376C8.61267 30.3264 8.31947 29.8444 8.42942 29.3625L9.63886 24.0238C9.74881 23.5419 10.2253 23.2453 10.7017 23.3565C11.1781 23.4677 11.4713 23.9497 11.3614 24.4316L10.152 29.7703C10.0787 30.1781 9.71216 30.4747 9.27236 30.4747Z" fill="white"/>
<path d="M20.3039 30.9196C20.3772 30.9196 20.4505 30.9196 20.4872 30.8825C20.9636 30.7713 21.2568 30.2893 21.1469 29.8074L19.9741 24.4687C19.8641 23.9868 19.3877 23.6902 18.9112 23.8014C18.4348 23.9126 18.1416 24.3946 18.2515 24.8765L19.4243 30.2152C19.5343 30.623 19.9008 30.9196 20.3039 30.9196Z" fill="white"/>
<path d="M29.3197 31.8093H0V30.9196C0 30.623 0.0366498 23.616 4.58121 18.9818C7.11003 16.4237 10.4818 15.1261 14.6599 15.1261C18.8379 15.1261 22.2097 16.4237 24.7385 18.9818C29.2831 23.616 29.3197 30.623 29.3197 30.9196V31.8093ZM1.83248 29.9927H27.4872C27.3773 28.6951 27.0108 26.2483 25.9113 23.8014C23.749 19.2413 19.9741 16.9427 14.6599 16.9427C10.9949 16.9427 8.02627 18.0549 5.86395 20.2423C2.71207 23.4307 2.01573 28.0649 1.83248 29.9927Z" fill="#1E1E1E"/>
<path d="M7.90637 30.9889C7.85478 31.1914 7.70769 31.2973 7.54222 31.3084L7.44359 31.2853C7.24368 31.2387 7.10698 31.0307 7.15771 30.8083L7.15788 30.8076L8.36715 25.4697C8.36717 25.4696 8.3672 25.4695 8.36722 25.4694C8.41585 25.257 8.62319 25.13 8.82885 25.1781C9.02876 25.2247 9.16546 25.4327 9.11473 25.6551L9.11457 25.6558L7.90637 30.9889Z" fill="#222222" stroke="#1E1E1E"/>
<path d="M20.1685 25.6558L20.1685 25.6558L20.1683 25.6551C20.1176 25.4327 20.2543 25.2247 20.4542 25.1781C20.6599 25.13 20.8672 25.257 20.9159 25.4694C20.9159 25.4695 20.9159 25.4696 20.9159 25.4697L22.1252 30.8076L22.1254 30.8083C22.1761 31.0307 22.0394 31.2387 21.8395 31.2853L21.781 31.299L21.7608 31.3092C21.607 31.3046 21.4329 31.1826 21.3753 30.9828L20.1685 25.6558Z" fill="#222222" stroke="#1E1E1E"/>
<g opacity="0.4">
<path fill-rule="evenodd" clip-rule="evenodd" d="M31.5187 9.72534C32.056 9.72534 32.4917 10.1681 32.4917 10.7143V17.3505C32.4917 17.8968 32.056 18.3395 31.5187 18.3395C30.9813 18.3395 30.5457 17.8968 30.5457 17.3505V10.7143C30.5457 10.1681 30.9813 9.72534 31.5187 9.72534Z" fill="#EE4853"/>
<path fill-rule="evenodd" clip-rule="evenodd" d="M27.2473 14.0139C27.2473 13.4677 27.6829 13.0249 28.2202 13.0249H34.7805C35.3179 13.0249 35.7535 13.4677 35.7535 14.0139C35.7535 14.5601 35.3179 15.0029 34.7805 15.0029H28.2202C27.6829 15.0029 27.2473 14.5601 27.2473 14.0139Z" fill="#EE4853"/>
</g>
<path fill-rule="evenodd" clip-rule="evenodd" d="M29.7229 11.1341C30.2602 11.1341 30.6958 11.5769 30.6958 12.1231V18.7594C30.6958 19.3056 30.2602 19.7484 29.7229 19.7484C29.1855 19.7484 28.7499 19.3056 28.7499 18.7594V12.1231C28.7499 11.5769 29.1855 11.1341 29.7229 11.1341Z" fill="#1E1E1E"/>
<path fill-rule="evenodd" clip-rule="evenodd" d="M25.4514 15.4598C25.4514 14.9136 25.887 14.4708 26.4244 14.4708H32.9847C33.522 14.4708 33.9576 14.9136 33.9576 15.4598C33.9576 16.006 33.522 16.4488 32.9847 16.4488H26.4244C25.887 16.4488 25.4514 16.006 25.4514 15.4598Z" fill="#1E1E1E"/>
</g>
<defs>
<clipPath id="clip0">
<rect width="36" height="33.8824" fill="white"/>
</clipPath>
</defs>
</svg>
