<svg width="140" height="25" viewBox="0 0 140 25" fill="none" xmlns="http://www.w3.org/2000/svg">
<path d="M3.60516 11.8017C5.10327 11.8017 6.2511 12.1681 7.04865 12.901C7.85698 13.6231 8.26115 14.5931 8.26115 15.811C8.26115 16.49 8.11565 17.1582 7.82465 17.8157C7.54443 18.4731 7.06482 18.9958 6.38582 19.3838L9.15031 23.7003H6.41815L3.91233 19.9173H2.34416V23.7003H0V11.8017H3.60516ZM4.00933 17.654C4.48355 17.654 4.84999 17.557 5.10866 17.363C5.3781 17.1582 5.56671 16.9211 5.67449 16.6517C5.78227 16.3715 5.83616 16.1182 5.83616 15.8918C5.83616 15.7625 5.8146 15.6009 5.77149 15.4069C5.73915 15.2021 5.66371 14.9973 5.54516 14.7925C5.4266 14.5877 5.24338 14.4153 4.99549 14.2752C4.75838 14.1351 4.43505 14.065 4.02549 14.065H2.34416V17.654H4.00933Z" fill="white"/>
<path d="M10.7597 11.8017H18.8753V14.065H13.1038V16.6032H18.2125V18.8665H13.1038V21.437H19.1016V23.7003H10.7597V11.8017Z" fill="white"/>
<path d="M20.1851 11.8825H22.9334L25.2775 18.7695L27.0882 14.2267L26.1505 11.8825H28.4785L31.146 18.4947L33.1669 11.8825H35.6889L31.0975 24.2177L28.2684 17.169L24.9704 24.25L20.1851 11.8825Z" fill="white"/>
<path d="M34.4736 23.7003L39.8409 11.3329H39.9702L45.3376 23.7003H42.6216L41.7001 21.3723H37.7554L36.7854 23.7003H34.4736ZM38.5799 19.4H40.9241L39.7762 16.5062L38.5799 19.4Z" fill="white"/>
<path d="M50.3539 11.8017C51.852 11.8017 52.9998 12.1681 53.7974 12.901C54.6057 13.6231 55.0099 14.5931 55.0099 15.811C55.0099 16.49 54.8644 17.1582 54.5734 17.8157C54.2932 18.4731 53.8135 18.9958 53.1345 19.3838L55.899 23.7003H53.1669L50.6611 19.9173H49.0929V23.7003H46.7487V11.8017H50.3539ZM50.7581 17.654C51.2323 17.654 51.5987 17.557 51.8574 17.363C52.1268 17.1582 52.3154 16.9211 52.4232 16.6517C52.531 16.3715 52.5849 16.1182 52.5849 15.8918C52.5849 15.7625 52.5633 15.6009 52.5202 15.4069C52.4879 15.2021 52.4124 14.9973 52.2939 14.7925C52.1753 14.5877 51.9921 14.4153 51.7442 14.2752C51.5071 14.1351 51.1838 14.065 50.7742 14.065H49.0929V17.654H50.7581Z" fill="white"/>
<path d="M57.5084 23.7003V11.8017H61.065C62.2614 11.8017 63.2799 11.9795 64.1205 12.3352C64.9612 12.6909 65.6348 13.1651 66.1414 13.7579C66.6587 14.3506 67.0359 15.0135 67.273 15.7463C67.5101 16.4792 67.6287 17.2175 67.6287 17.9612C67.6287 18.845 67.467 19.6425 67.1437 20.3538C66.8311 21.0544 66.4 21.658 65.8504 22.1645C65.3007 22.6603 64.6648 23.0429 63.9427 23.3123C63.2206 23.571 62.4554 23.7003 61.647 23.7003H57.5084ZM59.8525 21.437H61.2429C62.4284 21.437 63.3823 21.1298 64.1044 20.5155C64.8372 19.9012 65.2037 18.9958 65.2037 17.7995C65.2037 17.0235 65.0744 16.393 64.8157 15.908C64.5678 15.4122 64.2553 15.0296 63.878 14.7602C63.5116 14.4907 63.1344 14.3075 62.7464 14.2105C62.3584 14.1027 62.0296 14.0489 61.7602 14.0489H59.8525V21.437Z" fill="white"/>
<path d="M76.0108 14.6794C75.5582 14.4315 75.0947 14.2267 74.6205 14.065C74.1571 13.9034 73.7206 13.8225 73.311 13.8225C72.8045 13.8225 72.4057 13.9249 72.1147 14.1297C71.8237 14.3345 71.6782 14.6416 71.6782 15.0512C71.6782 15.3314 71.786 15.5847 72.0015 15.811C72.2278 16.0266 72.5135 16.2206 72.8583 16.393C73.214 16.5655 73.5805 16.7217 73.9577 16.8618C74.4211 17.0343 74.8684 17.2552 75.2995 17.5247C75.7306 17.7833 76.0863 18.1444 76.3665 18.6078C76.6467 19.0605 76.7868 19.6641 76.7868 20.4185C76.7868 21.0221 76.6306 21.5825 76.318 22.0998C76.0054 22.6172 75.5474 23.0375 74.9438 23.3608C74.3403 23.6734 73.5966 23.8297 72.7128 23.8297C72.0338 23.8297 71.3387 23.7273 70.6273 23.5225C69.9268 23.3177 69.264 22.9944 68.6389 22.5525L69.6735 20.7257C70.0831 21.0274 70.5519 21.2753 71.08 21.4693C71.6081 21.6633 72.0823 21.7603 72.5027 21.7603C72.7829 21.7603 73.0631 21.7226 73.3433 21.6472C73.6343 21.561 73.8715 21.4208 74.0547 21.2268C74.2487 21.0328 74.3457 20.7634 74.3457 20.4185C74.3457 20.0628 74.1732 19.7557 73.8283 19.497C73.4942 19.2276 73.0901 19.0012 72.6158 18.818C72.2494 18.6779 71.8722 18.5162 71.4842 18.333C71.0962 18.1498 70.7297 17.9288 70.3848 17.6702C70.0507 17.4007 69.7759 17.072 69.5604 16.684C69.3556 16.2852 69.2532 15.8002 69.2532 15.229C69.2532 14.5392 69.4041 13.9411 69.7058 13.4345C70.0184 12.928 70.4549 12.5292 71.0154 12.2382C71.5758 11.9364 72.2225 11.7694 72.9553 11.737C73.9146 11.737 74.6906 11.8502 75.2833 12.0765C75.8869 12.3029 76.4258 12.5723 76.9 12.8849L76.0108 14.6794Z" fill="white"/>
<path fill-rule="evenodd" clip-rule="evenodd" d="M86.2546 5.16741C85.8394 5.16741 85.5027 4.83079 85.5027 4.41554V4.10966C85.5027 3.53554 85.8143 3.062 86.2546 2.80734C86.3734 2.73862 86.5016 2.68584 86.6355 2.65133C86.7101 2.6321 86.7865 2.61854 86.864 2.61105C86.9574 2.60203 87.0524 2.60179 87.148 2.61105C87.3065 2.62638 87.4667 2.66776 87.6236 2.73836L93.0214 5.16741H86.2546ZM99.0245 2.61105C98.9561 2.62959 98.8878 2.65327 98.82 2.68232L93.0214 5.16741H100.164C100.579 5.16741 100.916 4.83079 100.916 4.41554V4.06448C100.916 3.49117 100.605 3.01705 100.164 2.76215C100.074 2.70971 99.9774 2.66655 99.8775 2.63371C99.8525 2.6255 99.8273 2.61795 99.8019 2.61105C99.5557 2.54428 99.2891 2.53936 99.0245 2.61105ZM93.0465 2.37543L97.813 0.332652C100.492 -0.815545 103.472 1.14966 103.472 4.06448V4.41554C103.472 6.24263 101.991 7.72377 100.164 7.72377H86.2546C84.4275 7.72377 82.9464 6.24263 82.9464 4.41554V4.10966C82.9464 1.16341 85.9858 -0.801873 88.6726 0.407162L93.0465 2.37543Z" fill="white"/>
<path d="M83.5479 13.9643C83.5479 10.5178 86.3418 7.72381 89.7884 7.72381H91.5177V6.22008H95.8605L92.7026 5.16745H89.7884C84.93 5.16745 80.9915 9.10596 80.9915 13.9643V23.7387C82.4033 23.7387 83.5479 22.5941 83.5479 21.1823V13.9643Z" fill="white"/>
<path d="M99.7883 10.224V10.205H99.7313L99.7883 10.224Z" fill="white"/>
<path d="M97.5273 22.4949C97.3873 22.6456 97.1665 22.8018 96.865 22.9633C96.5635 23.1141 96.2135 23.2541 95.815 23.3833C95.4273 23.5125 95.0289 23.6148 94.6197 23.6902C94.2105 23.7764 93.8228 23.8194 93.4566 23.8194C92.1751 23.8194 91.0605 23.5718 90.1129 23.0764C89.1652 22.581 88.4329 21.9026 87.916 21.0411C87.4099 20.1795 87.1568 19.1942 87.1568 18.085C87.1568 16.9973 87.3183 16.055 87.6414 15.2581C87.9753 14.4505 88.4222 13.7828 88.9821 13.2551C89.5529 12.7167 90.2044 12.3182 90.9367 12.0598C91.6798 11.8013 92.4551 11.6721 93.2628 11.6721C94.0274 11.6721 94.7274 11.7582 95.3627 11.9305C95.9981 12.0921 96.5366 12.2967 96.9781 12.5444L96.2189 14.7251C96.025 14.6174 95.7666 14.5097 95.4435 14.402C95.1204 14.2943 94.792 14.2082 94.4581 14.1435C94.1243 14.0682 93.8282 14.0305 93.5697 14.0305C92.2882 14.0305 91.3028 14.3535 90.6136 14.9997C89.9244 15.635 89.5798 16.5935 89.5798 17.875C89.5798 18.618 89.7467 19.2588 90.0806 19.7972C90.4144 20.3357 90.8775 20.7503 91.4698 21.0411C92.0728 21.3318 92.7566 21.4772 93.5212 21.4772C93.8551 21.4772 94.162 21.4557 94.442 21.4126C94.722 21.3587 94.9589 21.278 95.1527 21.1703V19.7326H93.1013V17.4712H97.5273V22.4949Z" fill="white"/>
<path d="M105.631 23.6902L110.994 11.3329H111.123L116.486 23.6902H113.772L112.852 21.3641H108.91L107.941 23.6902H105.631ZM109.734 19.3934H112.076L110.929 16.5019L109.734 19.3934Z" fill="white"/>
<path d="M129.214 24.1748L120.895 16.6635L120.944 23.6902H118.569V11.3329H118.666L126.969 18.9573L126.921 11.8013H129.279V24.1748H129.214Z" fill="white"/>
<path d="M131.883 11.8013H139.895V14.0628H137.004V23.6902H134.661V14.0628H131.883V11.8013Z" fill="white"/>
<path d="M103.221 23.6867V11.8072H100.878V23.6867H103.221Z" fill="white"/>
</svg>
